<svg xmlns="http://www.w3.org/2000/svg" xmlns:xlink="http://www.w3.org/1999/xlink" version="1.1" x="0px" y="0px" viewBox="0 0 512 640" style="enable-background:new 0 0 512 512;" xml:space="preserve">
	<g>
		<path fill="#fff" d="M376.4,191H300v28h72v193H140V219h72v-28h-76.4c-13.2,0-23.6,10.9-23.6,24.1v201c0,13.2,10.4,23.8,23.6,23.8h240.7   c13.2,0,23.6-10.6,23.6-23.8v-201C400,201.9,389.6,191,376.4,191z"/>
		<path fill="#fff" d="M240,116.6V305h28V116.6l51.2,44l18.2-21.3l-74.5-63.8c-5.2-4.5-13-4.5-18.2,0l-74.4,63.8l18.3,21.3L240,116.6z"/>
	</g>
</svg>